0
SECTION
2
HEADER
9
$INSUNITS
70
4
9
$ACADVER
1
AC1014
9
$HANDSEED
5
FFFF
0
ENDSEC
0
SECTION
2
TABLES
0
TABLE
2
VPORT
5
8
100
AcDbSymbolTable
0
ENDTAB
0
TABLE
2
LTYPE
5
5
100
AcDbSymbolTable
0
LTYPE
5
14
100
AcDbSymbolTableRecord
100
AcDbLinetypeTableRecord
2
BYBLOCK
70
0
0
LTYPE
5
15
100
AcDbSymbolTableRecord
100
AcDbLinetypeTableRecord
2
BYLAYER
70
0
0
LTYPE
5
16
100
AcDbSymbolTableRecord
100
AcDbLinetypeTableRecord
2
DASHED
70
0
3
Dashed __ __ __ __ __ __ __ __ __ __ __ __ __ _
72
65
73
2
40
0.75
49
0.5
74
0
49
-0.25
74
0
0
ENDTAB
0
TABLE
2
LAYER
5
2
100
AcDbSymbolTable
70
2
0
LAYER
5
50
100
AcDbSymbolTableRecord
100
AcDbLayerTableRecord
2
0
70
0
62
7
6
CONTINUOUS
0
ENDTAB
0
TABLE
2
STYLE
5
3
100
AcDbSymbolTable
70
1
0
STYLE
5
11
100
AcDbSymbolTableRecord
100
AcDbTextStyleTableRecord
2
STANDARD
70
0
0
ENDTAB
0
TABLE
2
VIEW
5
6
100
AcDbSymbolTable
70
0
0
ENDTAB
0
TABLE
2
UCS
5
7
100
AcDbSymbolTable
70
0
0
ENDTAB
0
TABLE
2
APPID
5
9
100
AcDbSymbolTable
70
2
0
APPID
5
12
100
AcDbSymbolTableRecord
100
AcDbRegAppTableRecord
2
ACAD
70
0
0
ENDTAB
0
TABLE
2
DIMSTYLE
5
A
100
AcDbSymbolTable
70
1
0
ENDTAB
0
TABLE
2
BLOCK_RECORD
5
1
100
AcDbSymbolTable
70
1
0
BLOCK_RECORD
5
1F
100
AcDbSymbolTableRecord
100
AcDbBlockTableRecord
2
*MODEL_SPACE
0
BLOCK_RECORD
5
1B
100
AcDbSymbolTableRecord
100
AcDbBlockTableRecord
2
*PAPER_SPACE
0
ENDTAB
0
ENDSEC
0
SECTION
2
BLOCKS
0
BLOCK
5
20
100
AcDbEntity
100
AcDbBlockBegin
2
*MODEL_SPACE
0
ENDBLK
5
21
100
AcDbEntity
100
AcDbBlockEnd
0
BLOCK
5
1C
100
AcDbEntity
100
AcDbBlockBegin
2
*PAPER_SPACE
0
ENDBLK
5
1D
100
AcDbEntity
100
AcDbBlockEnd
0
ENDSEC
0
SECTION
2
ENTITIES
0
POINT
5
100
100
AcDbEntity
8
0
100
AcDbPoint
10
9.076677891009254
20
59.229999999946763
30
0
0
LINE
5
101
100
AcDbEntity
8
0
100
AcDbLine
10
9.0766778909987149
20
57.729999999944638
30
0
11
-8.9233221090013011
21
57.730000000044079
31
0
0
ARC
5
102
100
AcDbEntity
8
0
100
AcDbCircle
10
-24.78409526392128
20
59.230000000033854
30
0
40
1.500000000081565
210
0
220
-0
230
1
100
AcDbArc
50
89.999999999817078
51
269.99999999981696
0
ARC
5
103
100
AcDbEntity
8
0
100
AcDbCircle
10
-15.784095263903311
20
59.230000000026365
30
0
40
1.500000000060222
210
0
220
0
230
1
100
AcDbArc
50
-90.000000000185082
51
89.999999999804047
0
ARC
5
104
100
AcDbEntity
8
0
100
AcDbCircle
10
15.784095263764261
20
59.229999999992195
30
0
40
1.5000000000591474
210
0
220
0
230
1
100
AcDbArc
50
90.000000000072049
51
270.00000000006082
0
ARC
5
105
100
AcDbEntity
8
0
100
AcDbCircle
10
28.249999999999986
20
59.030000000001685
30
0
40
3.9000000000000101
210
-0
220
0
230
1
100
AcDbArc
50
0
51
90.000000000045205
0
LWPOLYLINE
5
106
100
AcDbEntity
8
0
100
AcDbPolyline
90
8
70
1
43
0.0
10
-26.540000000000006
20
46.099999999999994
10
26.540000000000006
20
46.099999999999994
42
-0.4142135623731002
10
27.539999999999999
20
45.09999999999998
10
27.540000000000006
20
-45.099999999999994
42
-0.41421356237309509
10
26.540000000000006
20
-46.099999999999994
10
-26.540000000000006
20
-46.099999999999994
42
-0.41421356237310542
10
-27.540000000000006
20
-45.099999999999994
10
-27.540000000000006
20
45.099999999999994
42
-0.41421356237309509
0
LWPOLYLINE
5
107
100
AcDbEntity
8
0
100
AcDbPolyline
90
8
70
1
43
0.0
10
-32.200000000011435
20
-46.96999999999916
42
0.41421356237315826
10
-28.249999999999993
20
-50.920000000011456
10
28.25
20
-50.920000000000023
42
0.41421356237309437
10
32.200000000000003
20
-46.970000000000013
10
32.199999999999996
20
59.030000000001678
42
0.41421356237332652
10
28.24999999999687
20
62.980000000001695
10
-28.250000000003105
20
62.979999999979015
42
0.41421356237280232
10
-32.1999999999774
20
59.030000000002474
0
LWPOLYLINE
5
108
100
AcDbEntity
8
0
100
AcDbPolyline
90
4
70
1
43
0.0
10
15.784095263762518
20
60.605000000051341
42
0.99999999999999989
10
15.784095263765991
20
57.85499999993305
10
24.784095263766179
20
57.854999999909296
42
0.99999999999999989
10
24.78409526379723
20
60.605000000051092
0
LWPOLYLINE
5
109
100
AcDbEntity
8
0
100
AcDbPolyline
90
4
70
1
43
0.0
10
-8.9233221089865182
20
60.605000000055405
42
0.99999999999999989
10
-8.9233221090031414
20
57.855000000054446
10
9.0766778909994059
20
57.854999999944638
42
0.99999999999999989
10
9.0766778910189156
20
60.604999999948888
0
LWPOLYLINE
5
110
100
AcDbEntity
8
0
100
AcDbPolyline
90
4
70
1
43
0.0
10
-24.784095263916907
20
60.605000000115425
42
0.99999999999999989
10
-24.784095263925675
20
57.854999999952298
10
-15.784095263908348
20
57.85499999996614
42
0.99999999999999989
10
-15.78409526389887
20
60.605000000086584
0
ENDSEC
0
SECTION
2
OBJECTS
0
DICTIONARY
5
C
100
AcDbDictionary
3
ACAD_GROUP
350
D
3
ACAD_MLINESTYLE
350
17
0
DICTIONARY
5
D
100
AcDbDictionary
0
DICTIONARY
5
1A
330
C
100
AcDbDictionary
0
DICTIONARY
5
17
100
AcDbDictionary
0
ENDSEC
0
EOF
